<svg xmlns="http://www.w3.org/2000/svg" viewBox="408 -1086 660 231.359">
  <defs>
    <style>
      .cls-1 {
        fill: #fff;
      }

      .cls-2 {
        fill: #0c3fa0;
      }
    </style>
  </defs>
  <g id="codev-logo" transform="translate(423 -1120)">
    <path id="Path_77" data-name="Path 77" class="cls-1" d="M-492.7,295.538l.114,40.232h13.9V304.428l86.5-40.459V451.677l-86.389-40.345V380.673h-13.9v39.547l114.2,53.338V242.2Z" transform="translate(623.011 -208.2)"/>
    <path id="Path_78" data-name="Path 78" class="cls-2" d="M-488.109,329.161V289.5L-620.2,351.272l132.091,61.658V373.268h-13.9v17.779l-85.25-39.776,85.25-39.89v17.779Z" transform="translate(605.2 -201.592)"/>
    <g id="Group_7" data-name="Group 7" transform="translate(297.734 103.882)">
      <path id="Path_79" data-name="Path 79" class="cls-2" d="M-284.6,360.958c-7.636,9.345-15.842,14.018-24.731,14.018-11.853,0-20.97-4.445-27.125-13.335-6.269-8.889-9.346-19.717-9.346-32.253,0-12.651,3.077-23.364,9.346-32.253S-321.182,283.8-309.33,283.8c8.776,0,16.868,4.331,24.048,12.878a52.1,52.1,0,0,1,3.305,5.357l-7.864,4.331c-.57-1.14-1.14-2.166-1.824-3.305-5.471-6.838-11.4-10.143-17.665-10.143-9.345,0-16.3,3.533-20.743,10.713s-6.724,15.728-6.724,25.757,2.28,18.691,6.724,25.757c4.445,7.18,11.4,10.713,20.743,10.713,6.268,0,12.423-3.761,18.235-11.283.228-.456.57-.912.8-1.368l8.32,3.533C-282.775,358.108-283.686,359.476-284.6,360.958Z" transform="translate(345.8 -283.458)"/>
      <path id="Path_80" data-name="Path 80" class="cls-2" d="M-277.7,327.067c0-11.169,2.621-18.577,7.978-22.11s11.853-5.357,19.375-5.357,14.019,1.823,19.375,5.357,7.978,7.864,7.978,12.879V345.3c0,11.169-2.621,18.463-7.978,22s-11.853,5.357-19.375,5.357-14.018-1.824-19.375-5.357-7.978-7.864-7.978-12.879Zm45.7-9.231c0-2.507-1.823-4.673-5.357-6.5s-7.864-2.621-12.879-2.621a29.474,29.474,0,0,0-12.879,2.621c-3.533,1.824-5.357,6.952-5.357,15.728v27.353c0,2.507,1.824,4.673,5.357,6.5s7.864,2.621,12.879,2.621a29.472,29.472,0,0,0,12.879-2.621c3.533-1.824,5.357-6.952,5.357-15.614Z" transform="translate(355.314 -281.251)"/>
      <path id="Path_81" data-name="Path 81" class="cls-1" d="M-208.368,283.614c15.158,0,28.151,4.445,38.75,13.334s15.956,19.717,15.956,32.253c0,12.65-3.533,23.364-10.713,32.254s-21.768,13.334-44.106,13.334H-217.6V283.5h9.231Zm0,82.172c19.717,0,32.253-3.533,37.61-10.713s7.978-15.728,7.978-25.757-4.445-18.691-13.335-25.757c-8.89-7.18-19.6-10.713-32.367-10.713v72.941Z" transform="translate(363.71 -283.5)"/>
      <path id="Path_82" data-name="Path 82" class="cls-1" d="M-140.182,340.729v4.559c0,8.662,1.824,13.791,5.357,15.614a27.917,27.917,0,0,0,12.879,2.735,27.917,27.917,0,0,0,12.879-2.735c3.533-1.71,5.357-3.875,5.357-6.382h9.118c0,5.129-2.735,9.346-7.978,12.879-5.357,3.533-11.853,5.357-19.375,5.357s-14.018-1.824-19.375-5.357-7.978-10.827-7.978-22V327.167c0-11.169,2.621-18.577,7.978-22.11s11.853-5.356,19.375-5.356,14.018,1.823,19.375,5.356,7.978,10.941,7.978,22.11v13.676h-45.588Zm36.47-13.676c0-8.662-1.824-13.9-5.357-15.728s-7.864-2.621-12.879-2.621a29.469,29.469,0,0,0-12.879,2.621c-3.533,1.823-5.357,6.952-5.357,15.728v4.559h36.47Z" transform="translate(373.251 -281.237)"/>
      <path id="Path_83" data-name="Path 83" class="cls-1" d="M-66.306,372.655-89.1,299.6h9.118l18.235,58.467L-43.512,299.6h9.118l-22.794,73.055Z" transform="translate(381.661 -281.251)"/>
    </g>
  </g>
</svg>
